<?xml version="1.0" encoding="utf-8"?>
<!-- Generator: Adobe Illustrator 16.0.0, SVG Export Plug-In . SVG Version: 6.00 Build 0)  -->
<!DOCTYPE svg PUBLIC "-//W3C//DTD SVG 1.1//EN" "http://www.w3.org/Graphics/SVG/1.1/DTD/svg11.dtd">
<svg version="1.1" id="Layer_1" xmlns="http://www.w3.org/2000/svg" xmlns:xlink="http://www.w3.org/1999/xlink" x="0px" y="0px"
	 width="48.352px" height="35.64px" viewBox="0 0 48.352 35.64" enable-background="new 0 0 48.352 35.64" xml:space="preserve">
<g>
	<path fill="#1A1A1A" d="M40.617,2.804c1.523,0,2.87,0.7,3.782,1.778l0.584-0.584c-1.065-1.229-2.616-2.023-4.366-2.023H8.57
		c-1.538,0-2.931,0.612-3.97,1.592l0.585,0.585C6.073,3.322,7.259,2.804,8.57,2.804H40.617z"/>
	<path fill="#1A1A1A" d="M3.597,27.946V7.776c0-0.829,0.222-1.6,0.582-2.288L3.571,4.882C3.075,5.736,2.769,6.719,2.769,7.776v20.17
		c0,0.985,0.269,1.9,0.706,2.714l0.605-0.607C3.778,29.41,3.597,28.701,3.597,27.946"/>
	<path fill="#1A1A1A" d="M45.59,7.776v20.17c0,0.683-0.137,1.333-0.388,1.926l0.607,0.608c0.378-0.769,0.609-1.621,0.609-2.534
		V7.776c0-0.841-0.189-1.636-0.514-2.358l-0.639,0.641C45.465,6.596,45.59,7.17,45.59,7.776"/>
	<path fill="#1A1A1A" d="M40.617,32.92H8.57c-1.384,0-2.633-0.567-3.535-1.479l-0.583,0.584c1.052,1.062,2.509,1.723,4.118,1.723
		h32.047c1.679,0,3.181-0.729,4.243-1.873l-0.584-0.585C43.366,32.284,42.07,32.92,40.617,32.92"/>
	<path fill="#1A1A1A" d="M8.57,3.633h32.047c1.292,0,2.434,0.607,3.194,1.537l0.588-0.588c-0.912-1.079-2.259-1.778-3.782-1.778
		H8.57c-1.312,0-2.497,0.519-3.385,1.348l0.587,0.587C6.511,4.059,7.489,3.633,8.57,3.633"/>
	<path fill="#1A1A1A" d="M44.762,7.776v20.17c0,0.444-0.09,0.864-0.219,1.266l0.659,0.66c0.251-0.593,0.388-1.243,0.388-1.926V7.776
		c0-0.606-0.125-1.181-0.323-1.718l-0.659,0.66C44.698,7.059,44.762,7.408,44.762,7.776"/>
	<path fill="#1A1A1A" d="M8.57,32.92h32.047c1.453,0,2.749-0.636,3.659-1.63l-0.588-0.587c-0.76,0.845-1.849,1.387-3.071,1.387H8.57
		c-1.152,0-2.194-0.475-2.946-1.236l-0.589,0.588C5.938,32.353,7.187,32.92,8.57,32.92"/>
	<path fill="#1A1A1A" d="M4.426,27.946V7.776c0-0.599,0.134-1.164,0.363-1.679l-0.61-0.609c-0.36,0.688-0.582,1.459-0.582,2.288
		v20.17c0,0.755,0.182,1.464,0.483,2.106l0.629-0.629C4.532,28.963,4.426,28.467,4.426,27.946"/>
	<path fill="#1A1A1A" d="M33.328,17.997l-1.172,1.172l11.532,11.534c0.384-0.428,0.674-0.933,0.854-1.491L33.328,17.997z"/>
	<path fill="#1A1A1A" d="M16.411,17.722L4.709,29.424c0.207,0.538,0.515,1.027,0.915,1.43l11.96-11.959L16.411,17.722z"/>
	<path fill="#1A1A1A" d="M5.035,31.441c-0.396-0.4-0.713-0.873-0.955-1.389L3.475,30.66c0.265,0.499,0.582,0.967,0.978,1.365
		L5.035,31.441z"/>
	<path fill="#1A1A1A" d="M44.276,31.29l0.584,0.585c0.381-0.414,0.699-0.882,0.95-1.395l-0.608-0.608
		C44.979,30.402,44.655,30.873,44.276,31.29"/>
	<path fill="#1A1A1A" d="M4.709,29.424L4.08,30.053c0.242,0.516,0.56,0.988,0.955,1.388l0.589-0.587
		C5.224,30.451,4.916,29.962,4.709,29.424"/>
	<path fill="#1A1A1A" d="M43.688,30.703l0.588,0.587c0.379-0.417,0.703-0.888,0.926-1.418l-0.659-0.66
		C44.362,29.771,44.072,30.275,43.688,30.703"/>
	<path fill="#1A1A1A" d="M33.328,17.997L44.607,6.719c-0.153-0.578-0.427-1.101-0.796-1.549L32.156,16.825L33.328,17.997z"/>
	<path fill="#1A1A1A" d="M17.584,16.549L5.772,4.738C5.357,5.121,5.021,5.577,4.789,6.098l11.622,11.624L17.584,16.549z"/>
	<path fill="#1A1A1A" d="M25.594,23.389c-0.314,0.312-0.858,0.312-1.173,0l-5.666-5.667l-1.171,1.173l5.665,5.664
		c0.47,0.471,1.095,0.729,1.758,0.729c0.664,0,1.289-0.259,1.759-0.729l5.391-5.39l-1.173-1.172L25.594,23.389z"/>
	<path fill="#1A1A1A" d="M44.399,4.582c0.368,0.437,0.665,0.93,0.867,1.477l0.639-0.641c-0.231-0.521-0.553-0.992-0.922-1.42
		L44.399,4.582z"/>
	<path fill="#1A1A1A" d="M5.186,4.151L4.601,3.566C4.194,3.95,3.854,4.396,3.571,4.882l0.607,0.606
		C4.44,4.988,4.775,4.534,5.186,4.151"/>
	<path fill="#1A1A1A" d="M5.772,4.738L5.186,4.152C4.775,4.534,4.44,4.988,4.179,5.488l0.61,0.609
		C5.021,5.577,5.357,5.121,5.772,4.738"/>
	<path fill="#1A1A1A" d="M44.607,6.719l0.659-0.66c-0.202-0.547-0.499-1.04-0.867-1.477L43.812,5.17
		C44.181,5.618,44.454,6.141,44.607,6.719"/>
	
		<rect x="31.327" y="17.168" transform="matrix(-0.7074 -0.7068 0.7068 -0.7074 42.1822 53.4563)" fill="#1A1A1A" width="1.658" height="1.657"/>
	
		<rect x="16.755" y="16.892" transform="matrix(0.7071 -0.7071 0.7071 0.7071 -7.3809 17.6243)" fill="#1A1A1A" width="1.659" height="1.659"/>
</g>
</svg>
